<?xml version="1.0" encoding="utf-8"?>
<!-- Generator: Adobe Illustrator 19.0.0, SVG Export Plug-In . SVG Version: 6.00 Build 0)  -->
<svg version="1.0" id="Layer_1" xmlns="http://www.w3.org/2000/svg" xmlns:xlink="http://www.w3.org/1999/xlink" x="0px" y="0px"
	 viewBox="0 0 512 512" style="enable-background:new 0 0 512 512;" xml:space="preserve">
<style type="text/css">
	.st0{fill:#6DAA53;}
	.st1{fill:#FFFFFF;}
</style>
<g id="XMLID_1_">
	<rect id="XMLID_2_" class="st0" width="512" height="513.7"/>
	<g id="XMLID_4_">
		<path id="XMLID_74_" class="st1" d="M374.7,68.5c5.8,2.1,8.4,6.9,10.4,12.2c0.3,0.7,0.5,1.5,0.2,2.4c-4.4,12.9-7.3,26.1-9.9,39.4
			c-5.2,26.5-8.1,53.3-8,80.3c0,3.9,0.2,7.8,0.3,11.6c0.4,2.9,0,5.9,0.2,8.8c-0.2,1.4-1.3,1.3-2.2,1.3c-2.6,0.1-5.3,0-7.9,0
			c-2.8,0-2.9,0.2-3.7,2.8c-2,6.9-4.7,13.4-8.4,19.6c-0.5,0.8-0.9,2.1-1.9,1.8c-0.8-0.2-0.8-1.7-0.8-2.6c0.1-3.1-0.7-6.2-0.5-9.3
			c0-0.6,0.3-1.2-0.2-1.8c-0.7-6.9-0.7-13.8-0.9-20.7c-0.5-16.6-0.2-33.2,1.4-49.8c2.8-29.2,7.9-58,16.1-86.2c1.4-5,4.6-7.6,9.1-9.4
			c0.5-0.2,1.1,0,1.4-0.6C371.1,68.5,372.9,68.5,374.7,68.5z"/>
		<path id="XMLID_73_" class="st1" d="M184.2,288.2c-1.5,8.5-3.5,16.8-5.4,25.2c-2.6,11.1-5.4,22.1-8.5,33
			c-4,13.9-10.3,26.8-16.7,39.7c-5.9,11.9-12.8,23.3-21.4,33.5c-2.8,3.3-5.8,6.4-9.5,8.6c-1.4,0.8-2.9,1.7-4.6,0.6
			c0-1.2,0-2.5,0-3.7c1-0.8,1-2.1,1.4-3.1c4-10.6,8.4-21.1,11.6-31.9c4.4-14.7,8.9-29.4,12.5-44.3c4.3-17.6,9.3-35,12.9-52.8
			c2-9.8,4-19.7,5.7-29.6c0.1-0.3,0.2-0.6,0.3-1c0.8-0.5-0.4-2.1,0.9-2.2c1.1-0.1,1.4,1.2,1.8,2c5,8.4,10.8,16.2,17.8,23
			C183.8,286.1,184.9,286.8,184.2,288.2z"/>
		<path id="XMLID_72_" class="st1" d="M370.5,262.8c0.8,6.5,1.6,13,2.4,19.6c2.3,18.3,5.6,36.5,8.9,54.7c1.6,8.7,2.5,17.5,3.6,26.3
			c2.4,17.8,4.5,35.7,6.6,53.6c0.1,1.2,0,2.4,0.5,3.5c0.4,1.8,0.2,3.8,0.7,5.6c0.1,0.9-0.2,1.8,0.2,2.7c0,1.5,0,3.1,0,4.6
			c-0.4,1.4-0.4,2.8,0,4.2c0,0.6,0,1.1,0,1.7c-0.3,0.3-0.3,0.6,0,0.8c0,0.4,0,0.8,0,1.2c-0.4,0.7-0.3,1.7-1.2,2.1
			c-0.7,0-1.4,0-2.1,0c-4.6-5.9-6.9-12.8-9.7-19.6c-7.6-19.1-12.5-39.1-18.2-58.8c-2.1-7.2-4.3-14.5-5.8-21.8
			c-3.2-15.2-5.8-30.4-8-45.8c-0.3-2.2-0.6-4.4-0.8-6.6c-0.6-1.1,0-1.8,0.8-2.5c5.4-4.6,9.7-10.3,14-15.8c2.3-2.9,4.2-6,6.2-9.1
			C369.1,262.8,369.5,261.6,370.5,262.8z"/>
		<path id="XMLID_71_" class="st1" d="M393,426.3c-0.2-1.9-0.3-3.9-0.5-5.8c1.1,1-0.1,2.7,0.9,3.7c0,0.7,0,1.4,0,2.1
			C393.3,426.5,393.1,426.5,393,426.3z"/>
		<path id="XMLID_70_" class="st1" d="M393.4,437.5c-0.7-1.4-0.7-2.8,0-4.2C393.4,434.7,393.4,436.1,393.4,437.5z"/>
		<path id="XMLID_69_" class="st1" d="M392.1,443.3c0.5-0.6,0.3-1.7,1.2-2.1C393.1,442,394.2,443.6,392.1,443.3z"/>
		<path id="XMLID_68_" class="st1" d="M393,426.3c0.1,0,0.3,0,0.4,0c0,0.8,0,1.7,0,2.5C392.6,428,393.1,427.1,393,426.3z"/>
		<path id="XMLID_67_" class="st1" d="M393.4,440c-0.6-0.3-0.5-0.6,0-0.8C393.4,439.4,393.4,439.7,393.4,440z"/>
		<path id="XMLID_66_" class="st1" d="M370.5,262.8c-0.5-0.3-0.9-0.3-1.2,0.3c-3.3,5.8-7.4,11.1-11.7,16.2c-2.7,3.3-5.3,6.7-8.8,9.2
			c-0.8,0.5-1.3,1.2-1.2,2.3c-0.4-0.3-0.7-0.3-1.1,0.1c-5.2,4.8-11,8.8-16.8,12.7c-13.4,8.3-27.9,13.9-43.5,16.3
			c-1.2,0.2-2.3,0.4-3.5,0.6c-5.8,0.7-11.6,1.1-17.4,1c-13-0.3-25.7-2.4-37.9-6.8c-6.9-2.7-13.7-5.5-20-9.4
			c-5.5-3.1-10.5-6.8-15.4-10.7c-2.2-1.8-4.3-3.8-6.5-5.7c-0.4-0.3-0.7-1-1.3-0.5c0.1-0.8-0.3-1.4-0.9-2c-7.7-7.5-14.1-16-19.4-25.3
			c-0.1-0.2-0.2-0.3-0.3-0.5c-1,0.4-0.2,1.6-1,1.9c0-1.1,0.1-2.2,0.1-3.3c-3.2-6.5-6.3-13.1-8.5-20c-1.8-5.6-2.9-11.4-4.2-17.1
			c-0.3-1.3,0.4-1.6,1.4-1.6c2.2,0,4.4-0.1,6.6,0.1c2.9,0.3,5.8,0,8.7,0.1c1.2,0.1,1-0.9,1.3-1.5c0.1-0.6,0.3-1.2,0.4-1.8
			c0.4,3.3,2.8,3.1,5.1,2.9c0.9-0.1,1.8,0,2.7,0c3,0,4,0.7,4.7,3.6c0.9,3.6,2,7.2,3.2,10.7c1.5,4.2,3.8,8.1,5.7,12.1
			c0.9,0.1,0.7-1.2,1.6-0.8c-0.7,3.2,0.6,5.6,2.4,8.2c8.2,11.6,18.7,20.7,31,27.6c3.6,2,7.4,3.8,11.4,5c6.8,2.5,13.8,4.3,21,4.9
			c8.6,0.8,17.2,0.9,25.7-0.9c5.5-1.1,10.9-2.4,16.1-4.4c5.8-2.2,11.3-5.1,16.6-8.4c6.7-4.1,12.5-9.2,17.9-15
			c3.2-3.4,5.9-7.1,8.5-11c0.8-1.2,1-2.3,0.9-3.7c-0.3-4.3-0.8-8.5-0.8-12.8c0.8,0.6,0.5,1.4,0.5,2.1c0,3.8,0.5,7.5,0.9,11.7
			c2.5-3.3,4-6.6,5.5-10c2-4.5,3.8-8.9,4.9-13.7c0.3-1.1,1.2-1.4,2.3-1.4c3.1,0,6.2,0,9.3,0c0.7,0,1.6,0.3,2.1-0.5
			c2.8,0.7,5.8,0.5,8.6,0.5c1.5,0,3,0,4.6,0c3.3,0,3.5,0.3,2.7,3.6c-0.9,3.5-1.9,7.1-2.9,10.6c-1.6,4.5-3.2,9.1-5.3,13.5
			c-1.2,2.6-2.4,5.1-3.8,7.6c-0.5,0.9-0.9,1.7-1,2.7C370.5,262.3,370.5,262.5,370.5,262.8z"/>
		<path id="XMLID_65_" class="st1" d="M191.3,245.8c-0.1,0-0.1,0.1-0.2,0.1c-0.7,0.6,0.2,2-0.8,2.1c-1.1,0.1-1.2-1.4-1.7-2.2
			c-3.7-6.9-6.8-14-8.3-21.7c-0.6-2.8-1.3-3.3-4.2-3.3c-1.8,0-3.6-0.1-5.4,0c-1.8,0.1-2.7-0.3-2.3-2.3c0.1-0.4,0-0.8-0.1-1.2
			c0.4-8.6,1.2-17.1,1.5-25.7c0.7-21.5,0.2-42.9-4.9-64c-0.1-0.4-0.2-0.8-0.1-1.2c0.9-5.3,7.4-11.3,12.8-11.5
			c4.5-0.2,8.3,1.7,11.8,4.4c0.7,0.6,1,1.5,1.2,2.4c2.9,11.7,4.6,23.5,5.3,35.5c1.6,27.5-0.2,55-3.6,82.3
			C191.9,241.5,191.6,243.6,191.3,245.8z"/>
		<path id="XMLID_64_" class="st1" d="M238.6,193.9c-11.5-0.1-20.8-9.5-20.7-21c0.1-11.3,9.5-20.6,20.7-20.6
			c11.8,0,21,9.4,20.9,21.2C259.4,184.9,250.1,194,238.6,193.9z"/>
		<path id="XMLID_63_" class="st1" d="M321.6,173.1c0,11.6-9.2,20.8-20.8,20.8c-11.5,0-20.9-9.5-20.8-20.8
			c0.1-11.3,9.3-20.6,20.6-20.8C312.1,152.1,321.5,161.5,321.6,173.1z"/>
		<path id="XMLID_62_" class="st1" d="M167.9,219.1c0.4,1.6-0.6,1.8-1.9,1.8c-4.6-0.1-9.1,0-13.7-0.2c-1.9-0.1-2.4,0.3-2,2.3
			c2.2,12,6,23.5,11.7,34.4c0.3,0.5,0.7,1,0.5,1.7c-2.5-3.6-4-7.7-5.8-11.6c-3.3-7.6-5.4-15.5-6.9-23.6c-0.7-3.8-0.8-3.9,3.3-3.8
			c4.1,0.1,8.3,0.2,12.4,0.4C166.7,220.4,167.5,220.1,167.9,219.1z"/>
		<path id="XMLID_61_" class="st1" d="M283.3,290.7c-5,1.4-10.2,1.5-15.4,1.6c-10.3,0.1-20.3-1.5-30-4.8c-0.6-0.2-1.4-0.3-1.8-0.9
			c2.9,0.2,5.4,1.5,8.1,2.2c11.7,3,23.4,3.7,35.3,2c0.6-0.1,1.2-0.1,1.9-0.1C282,290.4,282.7,290.3,283.3,290.7z"/>
		<path id="XMLID_60_" class="st1" d="M283.3,290.7c-0.6,0-1.2-0.1-1.8-0.1c4.2-1.2,8.6-1.8,12.8-3.2c6.5-2,12.6-4.9,18.4-8.3
			c0.9-0.6,1.8-1.3,2.9-1.4c-3.5,2.9-7.6,4.7-11.7,6.6C297.4,287.4,290.5,289.6,283.3,290.7z"/>
		<path id="XMLID_59_" class="st1" d="M227.1,314.3c5.1,1.5,10.1,3.1,15.4,4.2c12.8,2.7,25.6,3.2,38.5,1.8c0.7-0.1,1.4-0.1,2.1-0.1
			c0.8-0.2,1.5-0.4,2.3,0.1c-2.7,0.4-5.4,1-8.2,1.1c-8.4,0.5-16.8,0.5-25.2-0.6c-8.5-1.1-16.8-3.1-24.9-6c-0.2-0.1-0.4-0.2-0.5-0.3
			C226.7,314.2,226.9,314.2,227.1,314.3z"/>
		<path id="XMLID_58_" class="st1" d="M285.3,320.3c-0.8,0-1.5-0.1-2.3-0.1c3.8-0.8,7.7-1.5,11.5-2.4c11.8-2.7,22.9-7.3,33.3-13.5
			c0.6-0.3,1.1-0.9,1.8-0.8c-2.3,2.2-5.1,3.4-7.8,4.8C310.4,314.3,298.2,318.5,285.3,320.3z"/>
		<path id="XMLID_57_" class="st1" d="M227.1,314.3c-0.2,0.1-0.4,0.1-0.6,0.2c-6.3-2.4-12.6-4.9-18.3-8.6c-0.3-0.2-0.7-0.3-0.7-0.7
			c2.4,0.5,4.2,2.2,6.4,3.2c4.1,1.9,8.1,3.8,12.4,5.3C226.6,313.9,226.8,314.1,227.1,314.3z"/>
		<path id="XMLID_56_" class="st1" d="M380.4,238.5c1-4,2-8,3-12c0.4-1.5,0.2-2.1-1.6-2c-4.1,0.1-8.1-0.1-12.2-0.2
			c-0.8,0-1.5,0.1-2-0.7c0-3,0-6,0-9.1c0.8,2.1,0.3,4.2,0.4,6.3c0.2,2.8,0.1,2.8,2.9,2.8c3.7,0,7.5,0.2,11.2,0
			c2-0.1,2.4,0.8,2.1,2.5c-0.7,3.7-1.8,7.2-2.9,10.8c-0.2,0.8-0.5,1.5-0.8,2.3C380.3,239,380.3,238.8,380.4,238.5z"/>
		<path id="XMLID_55_" class="st1" d="M380.4,238.5c0.1,0.2,0.1,0.4,0.2,0.6c-2.1,7.1-5.2,13.7-8.7,20.3c-0.4,0.8-0.9,1.7-1.3,2.5
			c-0.2-0.7,0-1.4,0.3-2c3.8-6.7,6.8-13.7,9.2-21C380.1,238.8,380.3,238.7,380.4,238.5z"/>
	</g>
</g>
</svg>
